<svg width="65" height="64" viewBox="0 0 65 64" fill="none" xmlns="http://www.w3.org/2000/svg">
<path d="M45.9974 10.8724H37.1155C36.7981 9.87887 36.1732 9.01195 35.3309 8.39682C34.4886 7.7817 33.4727 7.4502 32.4297 7.4502C31.3867 7.4502 30.3708 7.7817 29.5285 8.39682C28.6863 9.01195 28.0613 9.87887 27.7439 10.8724H18.8563C17.1759 10.8724 15.5643 11.5399 14.376 12.7281C13.1878 13.9164 12.5203 15.528 12.5203 17.2084V50.2189C12.5203 51.8993 13.1878 53.5109 14.376 54.6992C15.5643 55.8874 17.1759 56.5549 18.8563 56.5549H45.9974C47.6778 56.5549 49.2894 55.8874 50.4776 54.6992C51.6658 53.5109 52.3334 51.8993 52.3334 50.2189V17.2084C52.3334 15.528 51.6658 13.9164 50.4776 12.7281C49.2894 11.5399 47.6778 10.8724 45.9974 10.8724ZM28.1875 12.0244C28.3214 12.0273 28.4522 11.9835 28.5573 11.9005C28.6625 11.8174 28.7354 11.7003 28.7635 11.5693C28.9465 10.7293 29.4114 9.97719 30.081 9.43787C30.7505 8.89854 31.5844 8.60446 32.4441 8.60446C33.3038 8.60446 34.1377 8.89854 34.8072 9.43787C35.4768 9.97719 35.9417 10.7293 36.1247 11.5693C36.1528 11.7003 36.2257 11.8174 36.3309 11.9005C36.436 11.9835 36.5668 12.0273 36.7007 12.0244H39.7996V15.7972C39.7996 16.2555 39.6176 16.695 39.2935 17.019C38.9694 17.3431 38.5299 17.5252 38.0716 17.5252H26.8108C26.3525 17.5252 25.913 17.3431 25.5889 17.019C25.2649 16.695 25.0828 16.2555 25.0828 15.7972V12.0244H28.1875ZM51.1814 50.2189C51.1814 51.5938 50.6352 52.9124 49.663 53.8846C48.6908 54.8568 47.3723 55.4029 45.9974 55.4029H18.8563C17.4814 55.4029 16.1628 54.8568 15.1906 53.8846C14.2184 52.9124 13.6723 51.5938 13.6723 50.2189V17.2084C13.6723 15.8335 14.2184 14.5149 15.1906 13.5427C16.1628 12.5705 17.4814 12.0244 18.8563 12.0244H23.9308V15.7972C23.9308 16.561 24.2343 17.2935 24.7744 17.8336C25.3145 18.3737 26.047 18.6772 26.8108 18.6772H38.0428C38.8067 18.6772 39.5392 18.3737 40.0793 17.8336C40.6194 17.2935 40.9228 16.561 40.9228 15.7972V12.0244H45.9974C47.3723 12.0244 48.6908 12.5705 49.663 13.5427C50.6352 14.5149 51.1814 15.8335 51.1814 17.2084V50.2189Z" fill="black"/>
<path d="M28.9643 29.6504H18.8267C18.674 29.6504 18.5275 29.7136 18.4194 29.8261C18.3114 29.9387 18.2507 30.0913 18.2507 30.2504C18.2507 30.4095 18.3114 30.5621 18.4194 30.6747C18.5275 30.7872 18.674 30.8504 18.8267 30.8504H28.9643C29.1171 30.8504 29.2636 30.7872 29.3716 30.6747C29.4796 30.5621 29.5403 30.4095 29.5403 30.2504C29.5403 30.0913 29.4796 29.9387 29.3716 29.8261C29.2636 29.7136 29.1171 29.6504 28.9643 29.6504Z" fill="black"/>
<path d="M45.6684 29.6504H35.5308C35.3781 29.6504 35.2316 29.7136 35.1235 29.8261C35.0155 29.9387 34.9548 30.0913 34.9548 30.2504C34.9548 30.4095 35.0155 30.5621 35.1235 30.6747C35.2316 30.7872 35.3781 30.8504 35.5308 30.8504H45.6684C45.8212 30.8504 45.9677 30.7872 46.0757 30.6747C46.1837 30.5621 46.2444 30.4095 46.2444 30.2504C46.2444 30.0913 46.1837 29.9387 46.0757 29.8261C45.9677 29.7136 45.8212 29.6504 45.6684 29.6504Z" fill="black"/>
<path d="M28.9931 43.2266H18.8267C18.674 43.2266 18.5275 43.2898 18.4194 43.4023C18.3114 43.5148 18.2507 43.6674 18.2507 43.8266C18.2507 43.9857 18.3114 44.1383 18.4194 44.2508C18.5275 44.3633 18.674 44.4266 18.8267 44.4266H28.9931C29.1459 44.4266 29.2924 44.3633 29.4004 44.2508C29.5084 44.1383 29.5691 43.9857 29.5691 43.8266C29.5691 43.6674 29.5084 43.5148 29.4004 43.4023C29.2924 43.2898 29.1459 43.2266 28.9931 43.2266Z" fill="black"/>
<path d="M45.6972 43.2266H35.5308C35.3781 43.2266 35.2316 43.2898 35.1235 43.4023C35.0155 43.5148 34.9548 43.6674 34.9548 43.8266C34.9548 43.9857 35.0155 44.1383 35.1235 44.2508C35.2316 44.3633 35.3781 44.4266 35.5308 44.4266H45.6972C45.85 44.4266 45.9965 44.3633 46.1045 44.2508C46.2125 44.1383 46.2732 43.9857 46.2732 43.8266C46.2732 43.6674 46.2125 43.5148 46.1045 43.4023C45.9965 43.2898 45.85 43.2266 45.6972 43.2266Z" fill="black"/>
</svg>
