<svg width="303" height="246" viewBox="0 0 303 246" fill="none" xmlns="http://www.w3.org/2000/svg">
<path d="M114.625 208.154V207.154H113.625H28.4062C13.2681 207.154 1 194.894 1 179.769V28.3846C1 13.2599 13.2681 1 28.4062 1H274.594C289.732 1 302 13.2599 302 28.3846V179.769C302 194.894 289.732 207.154 274.594 207.154H189.375H188.375V208.154V236.538V237.538H189.375H203.578C205.64 237.538 207.312 239.211 207.312 241.269C207.312 243.328 205.64 245 203.578 245H99.4219C97.3601 245 95.6875 243.328 95.6875 241.269C95.6875 239.211 97.3601 237.538 99.4219 237.538H113.625H114.625V236.538V208.154ZM179.906 237.538H180.906V236.538V208.154V207.154H179.906H123.094H122.094V208.154V236.538V237.538H123.094H179.906ZM169.438 77.9915V84.1538H133.562V78.0009V76.7474L132.34 77.0259C95.4229 85.4394 67.3988 117.457 65.3962 156.376L65.3961 156.378C65.3002 158.317 63.6637 159.846 61.6889 159.846C59.5402 159.846 57.8314 158.033 57.9437 155.884C60.2012 112.94 91.649 77.728 132.763 69.3299L133.562 69.1665V68.3502V66.2308V65.2308H132.562H74.8789H74.1726L73.9364 65.8964C72.1209 71.0129 67.278 74.6923 61.5469 74.6923C53.3158 74.6923 46.8466 67.1747 48.6536 58.6222L48.6538 58.621C49.7071 53.6042 53.8178 49.5647 58.8522 48.5727C65.7327 47.217 71.8393 51.2043 73.9366 57.1042L74.1731 57.7692H74.8789H132.562H133.562V56.7692V48.3077H169.438V56.7692V57.7692H170.438H228.121H228.827L229.063 57.1042C231.161 51.2042 237.258 47.217 244.148 48.5727C249.182 49.5646 253.293 53.6036 254.356 58.6213C256.154 67.1746 249.684 74.6923 241.453 74.6923C235.723 74.6923 230.888 71.0138 229.063 65.8949L228.826 65.2308H228.121H170.438H169.438V66.2308V68.3502V69.1665L170.237 69.3299C211.351 77.728 242.799 112.94 245.056 155.884C245.169 158.033 243.46 159.846 241.311 159.846C239.341 159.846 237.708 158.321 237.604 156.365C235.6 117.456 207.577 85.4394 170.66 77.0165L169.438 76.7376V77.9915ZM160.969 76.6923H161.969V75.6923V56.7692V55.7692H160.969H142.031H141.031V56.7692V75.6923V76.6923H142.031H160.969ZM274.594 199.692C285.608 199.692 294.531 190.777 294.531 179.769V28.3846C294.531 17.3766 285.608 8.46154 274.594 8.46154H28.4062C17.3917 8.46154 8.46875 17.3766 8.46875 28.3846V179.769C8.46875 190.777 17.3917 199.692 28.4062 199.692H274.594ZM55.8125 61.5C55.8125 64.6644 58.3819 67.2308 61.5469 67.2308C64.7118 67.2308 67.2812 64.6644 67.2812 61.5C67.2812 58.3356 64.7118 55.7692 61.5469 55.7692C58.3819 55.7692 55.8125 58.3356 55.8125 61.5ZM235.719 61.5C235.719 64.6644 238.288 67.2308 241.453 67.2308C244.618 67.2308 247.188 64.6644 247.188 61.5C247.188 58.3356 244.618 55.7692 241.453 55.7692C238.288 55.7692 235.719 58.3356 235.719 61.5Z" fill="white" stroke="#181818" stroke-width="2"/>
</svg>
